<svg width="20" height="20" viewBox="0 0 20 20" fill="none" xmlns="http://www.w3.org/2000/svg">
<path d="M5.5 15.5C5.5 15.1044 5.3827 14.7178 5.16294 14.3889C4.94318 14.06 4.63082 13.8036 4.26537 13.6522C3.89992 13.5009 3.49778 13.4613 3.10982 13.5384C2.72186 13.6156 2.36549 13.8061 2.08579 14.0858C1.80608 14.3655 1.6156 14.7219 1.53843 15.1098C1.46126 15.4978 1.50087 15.8999 1.65224 16.2654C1.80362 16.6308 2.05996 16.9432 2.38886 17.1629C2.71776 17.3827 3.10444 17.5 3.5 17.5C4.03043 17.5 4.53914 17.2893 4.91421 16.9142C5.28929 16.5391 5.5 16.0304 5.5 15.5V15.5Z" stroke="#D11243" stroke-width="1.5" stroke-linecap="round" stroke-linejoin="round"/>
<path d="M14.5 15.5C14.5 15.1044 14.3827 14.7178 14.1629 14.3889C13.9432 14.06 13.6308 13.8036 13.2654 13.6522C12.8999 13.5009 12.4978 13.4613 12.1098 13.5384C11.7219 13.6156 11.3655 13.8061 11.0858 14.0858C10.8061 14.3655 10.6156 14.7219 10.5384 15.1098C10.4613 15.4978 10.5009 15.8999 10.6522 16.2654C10.8036 16.6308 11.06 16.9432 11.3889 17.1629C11.7178 17.3827 12.1044 17.5 12.5 17.5C13.0304 17.5 13.5391 17.2893 13.9142 16.9142C14.2893 16.5391 14.5 16.0304 14.5 15.5V15.5Z" stroke="#D11243" stroke-width="1.5" stroke-linecap="round" stroke-linejoin="round"/>
<path d="M1.88743 4.5H14.75L12.5 10.5H3.22076C2.79033 10.5 2.40819 10.2246 2.27208 9.81623L0.938743 5.81623C0.722899 5.1687 1.20487 4.5 1.88743 4.5Z" fill="#D11243" stroke="#D11243" stroke-width="1.5"/>
<path d="M3.5 13.5H11.5L15.2606 3.15826C15.4043 2.76307 15.7799 2.5 16.2004 2.5H19.5" stroke="#D11243" stroke-width="1.5"/>
</svg>
